# xmcd
#
# Track frame offsets: 
#        150
#        17576
#        33252
#        49179
#        67709
#        83262
#        101090
#        121060
#        138070
#        156537
#        177048
#        194867
#
# Disc length: 2891 seconds
#
# Revision: 14
# Processed by: cddbd v1.5.2PL0 Copyright (c) Steve Scherf et al.
# Submitted via: ExactAudioCopy v1.3
#
DISCID=900b490c
DTITLE=Akon - Konvicted
DYEAR=2006
DGENRE=Hip-Hop
TTITLE0=Shake Down
TTITLE1=Akon feat. Styles P - Blown Away
TTITLE2=Akon feat. Eminem - Smack That
TTITLE3=Akon feat. Snoop Dogg - I Wanna Love You
TTITLE4=The Rain
TTITLE5=Never Took The Time
TTITLE6=Mama Africa
TTITLE7=I Can't Wait
TTITLE8=Gangsta Bop
TTITLE9=Tired Of Runnin'
TTITLE10=Once In A While
TTITLE11=Don't Matter
EXTD=YEAR: 2006
EXTT0=
EXTT1=
EXTT2=
EXTT3=
EXTT4=
EXTT5=
EXTT6=
EXTT7=
EXTT8=
EXTT9=
EXTT10=
EXTT11=
PLAYORDER=
